<mxfile host="app.diagrams.net" modified="2024-09-29T07:28:44.612Z" agent="Mozilla/5.0 (Windows NT 10.0; Win64; x64) AppleWebKit/537.36 (KHTML, like Gecko) Chrome/129.0.0.0 Safari/537.36 Edg/129.0.0.0" version="24.4.4" etag="rXtYP_BiuAoTo86Vg65_" type="github">
  <diagram name="Page-1" id="0w5xlq2MJpehpcJUL9IF">
    <mxGraphModel>
      <root>
        <mxCell id="0" />
        <mxCell id="1" parent="0" />
      </root>
    </mxGraphModel>
  </diagram>
</mxfile>
